<mxfile host="app.diagrams.net" modified="2024-05-27T12:03:49.229Z" agent="Mozilla/5.0 (Windows NT 10.0; Win64; x64) AppleWebKit/537.36 (KHTML, like Gecko) Chrome/125.0.0.0 Safari/537.36" etag="77OdtMuMKtoq0-R_tMxd" version="24.4.0" type="device">
  <diagram name="第 1 页" id="rOiArpCm1YSlx42P3QXg">
    <mxGraphModel dx="735" dy="443" grid="1" gridSize="10" guides="1" tooltips="1" connect="1" arrows="1" fold="1" page="1" pageScale="1" pageWidth="827" pageHeight="1169" math="1" shadow="0">
      <root>
        <mxCell id="0" />
        <mxCell id="1" parent="0" />
        <mxCell id="ZarxWw0_GlQh-CGqayf6-3" value="" style="rounded=1;whiteSpace=wrap;html=1;fillColor=#d5e8d4;strokeColor=#82b366;" vertex="1" parent="1">
          <mxGeometry x="200" y="240" width="120" height="160" as="geometry" />
        </mxCell>
        <mxCell id="ZarxWw0_GlQh-CGqayf6-4" value="" style="rounded=1;whiteSpace=wrap;html=1;fillColor=#d5e8d4;strokeColor=#82b366;" vertex="1" parent="1">
          <mxGeometry x="440" y="240" width="120" height="160" as="geometry" />
        </mxCell>
        <mxCell id="ZarxWw0_GlQh-CGqayf6-5" value="Alice" style="text;html=1;align=center;verticalAlign=middle;resizable=0;points=[];autosize=1;strokeColor=none;fillColor=none;fontFamily=Helvetica;fontSize=20;" vertex="1" parent="1">
          <mxGeometry x="225" y="200" width="70" height="40" as="geometry" />
        </mxCell>
        <mxCell id="ZarxWw0_GlQh-CGqayf6-6" value="Bob" style="text;html=1;align=center;verticalAlign=middle;resizable=0;points=[];autosize=1;strokeColor=none;fillColor=none;fontSize=20;" vertex="1" parent="1">
          <mxGeometry x="470" y="200" width="60" height="40" as="geometry" />
        </mxCell>
        <mxCell id="ZarxWw0_GlQh-CGqayf6-7" value="非秘密" style="text;html=1;align=center;verticalAlign=middle;resizable=0;points=[];autosize=1;strokeColor=none;fillColor=none;fontSize=20;" vertex="1" parent="1">
          <mxGeometry x="340" y="200" width="80" height="40" as="geometry" />
        </mxCell>
        <mxCell id="ZarxWw0_GlQh-CGqayf6-8" value="\(p,g\)" style="rounded=0;whiteSpace=wrap;html=1;fillColor=#dae8fc;strokeColor=#6c8ebf;" vertex="1" parent="1">
          <mxGeometry x="340" y="250" width="80" height="30" as="geometry" />
        </mxCell>
        <mxCell id="ZarxWw0_GlQh-CGqayf6-9" value="\(A\)" style="rounded=0;whiteSpace=wrap;html=1;fillColor=#f8cecc;strokeColor=#b85450;" vertex="1" parent="1">
          <mxGeometry x="340" y="300" width="80" height="30" as="geometry" />
        </mxCell>
        <mxCell id="ZarxWw0_GlQh-CGqayf6-20" style="edgeStyle=orthogonalEdgeStyle;rounded=0;orthogonalLoop=1;jettySize=auto;html=1;exitX=0;exitY=0.5;exitDx=0;exitDy=0;entryX=1;entryY=0.5;entryDx=0;entryDy=0;" edge="1" parent="1" source="ZarxWw0_GlQh-CGqayf6-10" target="ZarxWw0_GlQh-CGqayf6-19">
          <mxGeometry relative="1" as="geometry" />
        </mxCell>
        <mxCell id="ZarxWw0_GlQh-CGqayf6-10" value="\(B\)" style="rounded=0;whiteSpace=wrap;html=1;fillColor=#f8cecc;strokeColor=#b85450;" vertex="1" parent="1">
          <mxGeometry x="340" y="350" width="80" height="30" as="geometry" />
        </mxCell>
        <mxCell id="ZarxWw0_GlQh-CGqayf6-11" value="\(a\)" style="rounded=1;whiteSpace=wrap;html=1;fillColor=#d5e8d4;strokeColor=#82b366;" vertex="1" parent="1">
          <mxGeometry x="235" y="250" width="50" height="30" as="geometry" />
        </mxCell>
        <mxCell id="ZarxWw0_GlQh-CGqayf6-12" value="\(b\)" style="rounded=1;whiteSpace=wrap;html=1;fillColor=#d5e8d4;strokeColor=#82b366;" vertex="1" parent="1">
          <mxGeometry x="475" y="250" width="50" height="30" as="geometry" />
        </mxCell>
        <mxCell id="ZarxWw0_GlQh-CGqayf6-14" style="edgeStyle=orthogonalEdgeStyle;rounded=0;orthogonalLoop=1;jettySize=auto;html=1;exitX=1;exitY=0.5;exitDx=0;exitDy=0;entryX=0;entryY=0.5;entryDx=0;entryDy=0;" edge="1" parent="1" source="ZarxWw0_GlQh-CGqayf6-13" target="ZarxWw0_GlQh-CGqayf6-9">
          <mxGeometry relative="1" as="geometry" />
        </mxCell>
        <mxCell id="ZarxWw0_GlQh-CGqayf6-13" value="\(A\equiv g^a\pmod{p}\)" style="rounded=1;whiteSpace=wrap;html=1;fillColor=#d5e8d4;strokeColor=#82b366;fontSize=10;" vertex="1" parent="1">
          <mxGeometry x="210" y="300" width="100" height="30" as="geometry" />
        </mxCell>
        <mxCell id="ZarxWw0_GlQh-CGqayf6-18" style="edgeStyle=orthogonalEdgeStyle;rounded=0;orthogonalLoop=1;jettySize=auto;html=1;exitX=0;exitY=0.5;exitDx=0;exitDy=0;entryX=1;entryY=0.5;entryDx=0;entryDy=0;" edge="1" parent="1" source="ZarxWw0_GlQh-CGqayf6-17" target="ZarxWw0_GlQh-CGqayf6-10">
          <mxGeometry relative="1" as="geometry" />
        </mxCell>
        <mxCell id="ZarxWw0_GlQh-CGqayf6-17" value="\(B\equiv g^b\pmod{p}\)" style="rounded=1;whiteSpace=wrap;html=1;fillColor=#d5e8d4;strokeColor=#82b366;fontSize=10;" vertex="1" parent="1">
          <mxGeometry x="450" y="350" width="100" height="30" as="geometry" />
        </mxCell>
        <mxCell id="ZarxWw0_GlQh-CGqayf6-19" value="\(s\equiv B^a\pmod{p}\)" style="rounded=1;whiteSpace=wrap;html=1;fillColor=#d5e8d4;strokeColor=#82b366;fontSize=10;" vertex="1" parent="1">
          <mxGeometry x="210" y="350" width="100" height="30" as="geometry" />
        </mxCell>
        <mxCell id="ZarxWw0_GlQh-CGqayf6-21" value="\(s\equiv A^b\pmod{p}\)" style="rounded=1;whiteSpace=wrap;html=1;fillColor=#d5e8d4;strokeColor=#82b366;fontSize=10;" vertex="1" parent="1">
          <mxGeometry x="450" y="300" width="100" height="30" as="geometry" />
        </mxCell>
      </root>
    </mxGraphModel>
  </diagram>
</mxfile>
